<?xml version="1.0" encoding="utf-8"?>
<!-- Generator: Adobe Illustrator 27.8.1, SVG Export Plug-In . SVG Version: 6.00 Build 0)  -->
<svg version="1.1" id="Layer_1" xmlns="http://www.w3.org/2000/svg" xmlns:xlink="http://www.w3.org/1999/xlink" x="0px" y="0px"
	 viewBox="0 0 234.2 234.2" style="enable-background:new 0 0 800 234.2;" xml:space="preserve">
<style type="text/css">
	.st1{fill:url(#SVGID_1_);}
	.st2{fill:url(#SVGID_00000000937361887535853580000005161184997210572188_);}
	.st3{fill:#2A76FF;}
	.st4{fill:url(#SVGID_00000124135011102360519890000007961050763683116698_);}
	.st5{fill:url(#SVGID_00000035512353364693357010000014120295547045183881_);}
	.st6{fill:url(#SVGID_00000009548291193611373090000016958933743715383739_);}
	.st7{fill:url(#SVGID_00000158726201793571807750000005014394741820921729_);}
	.st8{fill:#2951FF;}
</style>
<g>
	<g>
		<linearGradient id="SVGID_1_" gradientUnits="userSpaceOnUse" x1="73.0851" y1="130.6361" x2="92.3272" y2="203.9144">
			<stop  offset="0" style="stop-color:#2951FF"/>
			<stop  offset="0.4573" style="stop-color:#2B50FF"/>
			<stop  offset="0.6221" style="stop-color:#324BFF"/>
			<stop  offset="0.7395" style="stop-color:#3D43FF"/>
			<stop  offset="0.8344" style="stop-color:#4E37FF"/>
			<stop  offset="0.9157" style="stop-color:#6427FF"/>
			<stop  offset="0.9865" style="stop-color:#7F14FF"/>
			<stop  offset="1" style="stop-color:#8510FF"/>
		</linearGradient>
		<path class="st1" d="M118.1,179.2l-71-41v15c0,3.4,1.8,6.5,4.8,8.2l61.6,35.2c1.5,0.8,3.1,1.2,4.7,1.2V179.2z"/>
		
			<linearGradient id="SVGID_00000159447110139074277710000000265050832348546441_" gradientUnits="userSpaceOnUse" x1="101.4814" y1="208.5111" x2="152.2736" y2="169.5977">
			<stop  offset="0" style="stop-color:#8510FF"/>
			<stop  offset="0.1027" style="stop-color:#751BFF"/>
			<stop  offset="0.3522" style="stop-color:#5433FF"/>
			<stop  offset="0.5911" style="stop-color:#3C43FF"/>
			<stop  offset="0.8127" style="stop-color:#2E4DFF"/>
			<stop  offset="1" style="stop-color:#2951FF"/>
		</linearGradient>
		<path style="fill:url(#SVGID_00000159447110139074277710000000265050832348546441_);" d="M122.8,196.7l61.6-35.2
			c2.9-1.7,4.8-4.8,4.8-8.2l0-14.8l-71,40.8v18.7C119.7,197.9,121.4,197.5,122.8,196.7z"/>
		<path class="st3" d="M128.3,173.2l-22.7,13.3c-3,1.8-6.8,1.8-9.8,0.1l-3.8-2.2l21.3,12.2c3,1.7,6.7,1.7,9.6,0l61.5-35.2
			c2.9-1.7,4.7-4.8,4.7-8.2v-14.9L128.3,173.2z"/>
		
			<linearGradient id="SVGID_00000154404841264034698170000009596342914239532180_" gradientUnits="userSpaceOnUse" x1="64.6896" y1="98.5397" x2="153.0051" y2="98.5397">
			<stop  offset="0" style="stop-color:#2951FF"/>
			<stop  offset="0.8691" style="stop-color:#00FAFF"/>
		</linearGradient>
		<path style="fill:url(#SVGID_00000154404841264034698170000009596342914239532180_);" d="M104.3,101.8l6.7,4c3.4,2,9.4,1,12.9-1
			L153,87.7l-14.7-8.5c-1.8-1.1-4.1-1.1-5.9,0l-22,12.9c-3.1,1.8-8.6,2.9-11.7,1.1l-7-4.1c-3.5-2-7.7-2-11.2,0l-15.7,9.1v20.3
			l31.2-18C99,98.8,101.2,100,104.3,101.8z"/>
		
			<linearGradient id="SVGID_00000026144090057964066570000013997317560023455403_" gradientUnits="userSpaceOnUse" x1="164.7616" y1="104.4361" x2="140.9968" y2="29.3225">
			<stop  offset="0" style="stop-color:#8510FF"/>
			<stop  offset="1.352668e-02" style="stop-color:#7F14FF"/>
			<stop  offset="8.426267e-02" style="stop-color:#6427FF"/>
			<stop  offset="0.1656" style="stop-color:#4E37FF"/>
			<stop  offset="0.2605" style="stop-color:#3D43FF"/>
			<stop  offset="0.3779" style="stop-color:#324BFF"/>
			<stop  offset="0.5427" style="stop-color:#2B50FF"/>
			<stop  offset="1" style="stop-color:#2951FF"/>
		</linearGradient>
		<path style="fill:url(#SVGID_00000026144090057964066570000013997317560023455403_);" d="M184.4,74.6l-61.6-35.2
			c-2.9-1.7-6.5-1.7-9.4,0l4.6,17.5l71.2,40.9l0-15C189.2,79.4,187.4,76.3,184.4,74.6z"/>
		<path class="st3" d="M107.9,62.8l22.7-13.3c3-1.8,6.8-1.8,9.8-0.1l3.8,2.2l-21.3-12.2c-3-1.7-6.7-1.7-9.6,0L51.8,74.6
			c-2.9,1.7-4.7,4.8-4.7,8.2v25.9l17.6,10V92.9c0-3.2,1.7-6.2,4.5-7.8L107.9,62.8z"/>
		
			<radialGradient id="SVGID_00000174563522768608042640000009016854822363230354_" cx="118.125" cy="117.9672" r="57.5628" gradientUnits="userSpaceOnUse">
			<stop  offset="0.1309" style="stop-color:#00FAFF"/>
			<stop  offset="1" style="stop-color:#2A76FF"/>
		</radialGradient>
		<path style="fill:url(#SVGID_00000174563522768608042640000009016854822363230354_);" d="M188,78.3l-57.7,32.9
			c-3.1,1.8-9,2.4-12.1,0.6l-7-4.1c-3.4-2-5.5-2.6-8.9-0.6l-55.2,31.2v0v15.3c0,1.5,0.4,2.9,1.1,4.2v0l67.6-38.1
			c3.1-1.8,4.9-1.2,8,0.7l6.7,4c3.4,2,7.7,2.1,11.1,0.1l47.6-26.5l0-15.1c0-1.4-0.3-2.8-0.9-4L188,78.3z"/>
		
			<linearGradient id="SVGID_00000006701538645155951870000006312446984366873019_" gradientUnits="userSpaceOnUse" x1="82.8045" y1="138.0954" x2="189.1936" y2="138.0954">
			<stop  offset="0.1325" style="stop-color:#00FAFF"/>
			<stop  offset="1" style="stop-color:#2951FF"/>
		</linearGradient>
		<path style="fill:url(#SVGID_00000006701538645155951870000006312446984366873019_);" d="M171.7,118.1l-0.1,0.1l-20.5,11.5
			c-3.1,1.8-9.2,2.8-12.3,1l-7-4.1c-3.4-2-5.4-2.9-8.8-1l-40.2,23.2l14.7,8.5c1.8,1,4,1,5.8,0l33.2-19.2c1.9-1.1,4.3-1.1,6.2,0
			l8.4,5c3.4,2,7.7,2.1,11.1,0.1l9.3-5.2l17.6-9.8L171.7,118.1z"/>
		<polygon class="st8" points="189.2,128.3 189.2,138.4 171.6,148.5 171.6,138.1 		"/>
	</g>
</g>
</svg>
