<svg id="svg" version="1.1" xmlns="http://www.w3.org/2000/svg" xmlns:xlink="http://www.w3.org/1999/xlink" width="400" height="400" viewBox="0, 0, 400,400"><g id="svgg"><path id="path0" d="M318.200 106.096 C 317.760 106.356,316.064 106.699,314.430 106.858 C 312.380 107.059,311.352 107.342,311.110 107.774 C 310.903 108.144,310.222 108.400,309.442 108.400 C 308.632 108.400,307.845 108.708,307.400 109.200 C 307.002 109.640,306.387 110.000,306.034 110.000 C 305.681 110.000,305.168 110.360,304.893 110.800 C 304.610 111.252,303.960 111.600,303.397 111.600 C 302.751 111.600,302.400 111.825,302.400 112.237 C 302.400 112.588,302.040 112.969,301.600 113.084 C 301.160 113.199,300.800 113.559,300.800 113.884 C 300.800 114.209,300.440 114.569,300.000 114.684 C 299.557 114.800,299.200 115.230,299.200 115.647 C 299.200 116.061,298.840 116.760,298.400 117.200 C 297.960 117.640,297.600 118.246,297.600 118.546 C 297.600 118.846,297.266 119.521,296.858 120.046 C 296.450 120.571,296.019 121.882,295.900 122.960 C 295.767 124.168,295.438 125.059,295.042 125.280 C 294.603 125.526,294.400 126.201,294.400 127.420 L 294.400 129.200 301.600 129.200 L 308.800 129.200 308.800 128.233 C 308.800 126.852,309.198 126.000,309.843 126.000 C 310.216 126.000,310.400 125.525,310.400 124.563 C 310.400 123.462,310.587 123.076,311.200 122.916 C 311.640 122.801,312.000 122.534,312.000 122.323 C 312.000 121.871,314.201 119.600,314.638 119.600 C 314.802 119.600,315.285 119.285,315.710 118.900 C 316.793 117.920,326.082 117.660,327.600 118.568 C 328.150 118.897,329.005 119.349,329.500 119.573 C 329.995 119.797,330.400 120.255,330.400 120.590 C 330.400 120.926,330.679 121.200,331.019 121.200 C 331.748 121.200,333.569 123.154,333.587 123.956 C 333.594 124.262,333.915 124.742,334.300 125.023 C 335.302 125.755,335.360 136.997,334.366 137.732 C 334.018 137.989,333.603 138.722,333.444 139.360 C 333.104 140.723,331.265 142.800,330.398 142.800 C 330.065 142.800,329.568 143.160,329.293 143.600 C 328.929 144.183,328.360 144.400,327.197 144.400 C 326.133 144.400,325.333 144.667,324.800 145.200 C 324.091 145.909,323.467 146.000,319.300 145.999 L 314.600 145.999 314.721 151.599 L 314.842 157.200 321.607 157.200 C 327.962 157.200,328.398 157.248,328.800 158.000 C 329.077 158.517,329.638 158.800,330.387 158.800 C 331.195 158.800,331.623 159.042,331.800 159.600 C 331.940 160.040,332.312 160.400,332.627 160.400 C 332.942 160.400,333.200 160.554,333.200 160.742 C 333.200 160.929,333.650 161.569,334.200 162.162 C 334.750 162.756,335.200 163.617,335.200 164.077 C 335.200 164.536,335.515 165.142,335.900 165.424 C 336.904 166.158,336.950 176.315,335.954 177.458 C 335.598 177.866,335.190 178.695,335.046 179.300 C 334.902 179.905,334.558 180.400,334.280 180.400 C 334.002 180.400,333.573 180.936,333.326 181.591 C 333.077 182.249,332.369 183.010,331.744 183.291 C 331.121 183.571,330.294 184.115,329.905 184.500 C 329.517 184.885,328.615 185.206,327.900 185.213 C 327.185 185.220,326.251 185.490,325.824 185.813 C 324.736 186.636,319.486 186.626,318.800 185.800 C 318.526 185.470,317.784 185.200,317.151 185.200 C 316.518 185.200,315.645 184.845,315.210 184.410 C 314.776 183.976,313.942 183.500,313.358 183.354 C 312.774 183.207,312.208 182.752,312.101 182.344 C 311.994 181.935,311.677 181.600,311.396 181.600 C 310.835 181.600,310.400 180.733,310.400 179.614 C 310.400 179.218,310.040 178.799,309.600 178.684 C 308.920 178.506,308.800 178.138,308.800 176.237 L 308.800 174.000 300.700 174.013 C 293.395 174.024,292.678 174.085,293.398 174.628 C 294.055 175.125,294.222 175.810,294.344 178.511 C 294.465 181.161,294.638 181.891,295.247 182.318 C 295.661 182.608,296.000 183.315,296.000 183.889 C 296.000 184.463,296.269 185.218,296.598 185.566 C 298.045 187.100,299.200 188.762,299.200 189.311 C 299.200 189.639,299.560 190.001,300.000 190.116 C 300.440 190.231,300.800 190.612,300.800 190.963 C 300.800 191.333,301.135 191.600,301.600 191.600 C 302.040 191.600,302.729 191.929,303.131 192.331 C 303.532 192.732,304.162 193.177,304.531 193.318 C 304.899 193.459,305.200 193.851,305.200 194.187 C 305.200 194.622,305.611 194.800,306.613 194.800 C 307.478 194.800,308.111 195.025,308.248 195.381 C 308.378 195.719,309.251 196.061,310.335 196.198 C 311.361 196.328,312.816 196.742,313.569 197.117 C 315.551 198.106,328.338 198.132,329.458 197.149 C 329.866 196.791,331.147 196.412,332.304 196.307 C 333.461 196.202,334.735 195.820,335.136 195.458 C 335.536 195.096,336.413 194.800,337.085 194.800 C 337.970 194.800,338.364 194.580,338.516 194.000 C 338.631 193.560,339.059 193.200,339.466 193.200 C 339.874 193.200,340.432 192.840,340.707 192.400 C 340.990 191.948,341.640 191.600,342.203 191.600 C 342.849 191.600,343.200 191.375,343.200 190.963 C 343.200 190.612,343.560 190.231,344.000 190.116 C 344.440 190.001,344.800 189.698,344.800 189.442 C 344.800 189.187,345.160 188.670,345.600 188.293 C 346.040 187.916,346.400 187.252,346.400 186.818 C 346.400 186.384,346.760 185.835,347.200 185.600 C 347.661 185.353,348.000 184.762,348.000 184.206 C 348.000 183.674,348.274 183.086,348.610 182.899 C 348.983 182.690,349.311 181.715,349.457 180.379 C 349.588 179.180,349.944 177.801,350.248 177.314 C 351.026 176.065,351.032 167.775,350.254 167.476 C 349.932 167.353,349.628 166.430,349.512 165.229 C 349.405 164.109,349.020 162.865,348.658 162.464 C 348.296 162.064,348.000 161.441,348.000 161.078 C 348.000 160.328,343.151 155.200,342.441 155.200 C 342.185 155.200,341.879 154.950,341.762 154.645 C 341.645 154.340,341.006 153.981,340.342 153.848 C 339.015 153.583,336.800 151.715,336.800 150.862 C 336.800 150.027,339.083 148.089,340.411 147.798 C 341.065 147.654,341.600 147.281,341.600 146.968 C 341.600 146.656,341.864 146.400,342.186 146.400 C 342.508 146.400,342.965 146.040,343.200 145.600 C 343.435 145.160,343.892 144.800,344.214 144.800 C 344.536 144.800,344.800 144.440,344.800 144.000 C 344.800 143.560,345.048 143.200,345.350 143.200 C 345.653 143.200,346.007 142.666,346.138 142.013 C 346.268 141.359,346.741 140.459,347.188 140.013 C 347.634 139.566,348.000 138.759,348.000 138.220 C 348.000 137.681,348.299 137.072,348.665 136.868 C 349.609 136.339,349.629 124.622,348.687 123.876 C 348.356 123.614,347.963 122.535,347.815 121.477 C 347.666 120.419,347.304 119.461,347.011 119.349 C 346.718 119.237,346.366 118.544,346.228 117.811 C 346.091 117.077,345.713 116.376,345.389 116.251 C 345.065 116.127,344.800 115.749,344.800 115.413 C 344.800 115.076,344.513 114.800,344.163 114.800 C 343.812 114.800,343.433 114.446,343.319 114.013 C 343.206 113.581,342.773 113.118,342.357 112.986 C 341.941 112.854,341.600 112.488,341.600 112.173 C 341.600 111.858,341.313 111.600,340.963 111.600 C 340.612 111.600,340.231 111.240,340.116 110.800 C 339.968 110.236,339.570 110.000,338.767 110.000 C 338.038 110.000,337.474 109.713,337.200 109.200 C 336.912 108.661,336.362 108.400,335.517 108.400 C 334.827 108.400,333.955 108.121,333.579 107.781 C 333.158 107.400,331.757 107.070,329.947 106.925 C 328.326 106.796,326.514 106.444,325.920 106.145 C 324.590 105.474,319.311 105.441,318.200 106.096 M63.600 141.492 C 64.412 141.801,64.787 142.426,64.794 143.486 C 64.797 143.973,65.160 144.565,65.600 144.800 C 66.040 145.035,66.400 145.470,66.400 145.765 C 66.400 146.060,66.652 146.511,66.961 146.767 C 67.269 147.023,67.634 147.680,67.771 148.227 C 67.908 148.773,68.376 149.576,68.810 150.010 C 69.245 150.445,69.600 151.166,69.600 151.613 C 69.600 152.059,69.852 152.522,70.161 152.640 C 70.469 152.759,70.837 153.473,70.979 154.228 C 71.132 155.044,71.472 155.600,71.818 155.600 C 72.138 155.600,72.400 155.932,72.400 156.338 C 72.400 156.744,72.760 157.402,73.200 157.800 C 73.640 158.198,74.000 158.828,74.000 159.200 C 74.000 159.572,74.360 160.202,74.800 160.600 C 75.240 160.998,75.600 161.815,75.600 162.415 C 75.600 163.170,75.847 163.571,76.400 163.716 C 76.978 163.867,77.200 164.262,77.200 165.136 C 77.200 165.995,77.432 166.420,78.000 166.600 C 78.440 166.740,78.800 167.128,78.800 167.464 C 78.800 167.799,79.160 168.531,79.600 169.091 C 80.040 169.650,80.400 170.354,80.400 170.654 C 80.400 170.954,80.760 171.560,81.200 172.000 C 81.640 172.440,82.000 173.070,82.000 173.400 C 82.000 173.730,82.360 174.360,82.800 174.800 C 83.240 175.240,83.600 176.050,83.600 176.600 C 83.600 177.230,83.826 177.600,84.210 177.600 C 84.565 177.600,84.918 178.092,85.056 178.780 C 85.186 179.428,85.631 180.266,86.046 180.642 C 86.461 181.017,86.800 181.544,86.800 181.813 C 86.800 182.082,87.070 182.526,87.400 182.800 C 87.730 183.074,88.000 183.638,88.000 184.053 C 88.000 184.468,88.360 185.116,88.800 185.493 C 89.240 185.870,89.600 186.491,89.600 186.873 C 89.600 187.256,89.939 187.891,90.353 188.284 C 90.768 188.678,91.232 189.585,91.385 190.300 C 91.541 191.026,91.914 191.600,92.232 191.600 C 92.544 191.600,92.800 191.887,92.800 192.237 C 92.800 192.587,93.160 193.331,93.600 193.891 C 94.040 194.450,94.400 195.244,94.400 195.654 C 94.400 196.064,94.651 196.400,94.957 196.400 C 95.595 196.400,96.000 197.249,96.000 198.586 C 96.000 199.170,96.292 199.583,96.800 199.716 C 97.383 199.868,97.600 200.262,97.600 201.163 C 97.600 201.970,97.799 202.400,98.173 202.400 C 98.488 202.400,98.874 202.804,99.031 203.298 C 99.188 203.793,99.543 204.378,99.821 204.598 C 100.795 205.374,100.895 207.372,100.016 208.489 C 99.567 209.060,99.200 209.920,99.200 210.401 C 99.200 210.938,98.892 211.355,98.400 211.484 C 97.881 211.620,97.600 212.030,97.600 212.651 C 97.600 213.177,97.240 213.916,96.800 214.293 C 96.360 214.670,96.000 215.298,96.000 215.689 C 96.000 216.080,95.640 216.760,95.200 217.200 C 94.760 217.640,94.400 218.268,94.400 218.597 C 94.400 218.925,94.040 219.418,93.600 219.693 C 93.160 219.968,92.800 220.605,92.800 221.109 C 92.800 221.613,92.541 222.124,92.224 222.246 C 91.908 222.367,91.524 223.037,91.371 223.733 C 91.218 224.430,90.757 225.235,90.346 225.523 C 89.936 225.810,89.600 226.397,89.600 226.827 C 89.600 227.256,89.240 227.916,88.800 228.293 C 88.360 228.670,88.000 229.298,88.000 229.689 C 88.000 230.080,87.730 230.400,87.400 230.400 C 87.029 230.400,86.800 230.776,86.800 231.384 C 86.800 231.926,86.461 232.691,86.047 233.084 C 85.632 233.478,85.168 234.385,85.015 235.100 C 84.862 235.815,84.501 236.400,84.213 236.400 C 83.925 236.400,83.571 237.030,83.426 237.800 C 83.282 238.570,82.987 239.200,82.772 239.200 C 82.556 239.200,82.207 239.655,81.996 240.210 C 81.785 240.766,81.339 241.325,81.006 241.453 C 80.652 241.589,80.400 242.182,80.400 242.880 C 80.400 243.738,80.175 244.134,79.600 244.284 C 79.034 244.432,78.800 244.830,78.800 245.643 C 78.800 246.360,78.499 246.981,78.000 247.293 C 77.560 247.568,77.200 248.198,77.200 248.693 C 77.200 249.188,76.840 249.818,76.400 250.093 C 75.960 250.368,75.600 250.836,75.600 251.133 C 75.600 251.431,75.240 252.131,74.800 252.691 C 74.360 253.250,74.000 254.044,74.000 254.454 C 74.000 254.864,73.738 255.200,73.418 255.200 C 73.069 255.200,72.730 255.764,72.572 256.611 C 72.426 257.387,71.968 258.203,71.553 258.425 C 71.139 258.647,70.800 259.184,70.800 259.618 C 70.800 260.053,70.211 261.261,69.491 262.304 C 68.771 263.347,67.965 264.695,67.699 265.300 C 67.434 265.905,67.033 266.400,66.809 266.400 C 66.584 266.400,66.400 266.745,66.400 267.167 C 66.400 268.359,65.969 269.200,65.357 269.200 C 65.030 269.200,64.800 269.612,64.800 270.200 C 64.800 270.750,64.440 271.560,64.000 272.000 C 63.560 272.440,63.200 273.055,63.200 273.367 C 63.200 273.678,62.975 274.024,62.700 274.135 C 62.425 274.246,66.976 274.351,72.812 274.368 L 83.425 274.400 83.898 273.300 C 84.375 272.190,84.778 271.493,86.084 269.516 C 86.478 268.920,86.800 268.189,86.800 267.892 C 86.800 267.594,87.160 266.964,87.600 266.492 C 88.040 266.020,88.400 265.267,88.400 264.820 C 88.400 264.373,88.760 263.782,89.200 263.507 C 89.696 263.197,90.000 262.574,90.000 261.866 C 90.000 261.062,90.236 260.663,90.800 260.516 C 91.397 260.360,91.600 259.970,91.600 258.980 C 91.600 258.005,91.812 257.587,92.400 257.400 C 92.960 257.222,93.200 256.795,93.200 255.976 C 93.200 255.240,93.496 254.622,94.000 254.307 C 94.459 254.021,94.800 253.374,94.800 252.793 C 94.800 252.234,95.160 251.470,95.600 251.093 C 96.040 250.716,96.400 249.996,96.400 249.493 C 96.400 248.990,96.760 248.270,97.200 247.893 C 97.640 247.516,98.000 246.919,98.000 246.567 C 98.000 246.215,98.360 245.469,98.800 244.909 C 99.240 244.350,99.600 243.578,99.600 243.195 C 99.600 242.812,99.858 242.283,100.174 242.021 C 100.490 241.759,100.867 241.005,101.012 240.345 C 101.157 239.686,101.528 239.049,101.838 238.930 C 102.147 238.812,102.400 238.398,102.400 238.011 C 102.400 237.624,102.760 236.850,103.200 236.291 C 103.640 235.731,104.000 235.015,104.000 234.699 C 104.000 234.383,104.360 233.798,104.800 233.400 C 105.240 233.002,105.600 232.266,105.600 231.765 C 105.600 231.205,105.908 230.756,106.400 230.600 C 106.968 230.420,107.200 229.995,107.200 229.136 C 107.200 228.262,107.422 227.867,108.000 227.716 C 108.573 227.566,108.800 227.170,108.800 226.323 C 108.800 224.040,112.414 221.655,113.077 223.500 C 113.215 223.885,113.659 224.522,114.064 224.916 C 114.469 225.309,114.800 226.031,114.800 226.519 C 114.800 227.008,115.160 227.632,115.600 227.907 C 116.110 228.226,116.400 228.840,116.400 229.603 C 116.400 230.384,116.602 230.800,116.982 230.800 C 117.333 230.800,117.670 231.369,117.832 232.232 C 117.980 233.019,118.343 233.757,118.640 233.871 C 118.936 233.984,119.291 234.677,119.428 235.411 C 119.566 236.144,119.921 236.838,120.217 236.951 C 120.513 237.065,120.873 237.785,121.017 238.551 C 121.161 239.318,121.521 240.038,121.817 240.151 C 122.113 240.265,122.476 240.997,122.622 241.779 C 122.776 242.597,123.125 243.200,123.445 243.200 C 123.750 243.200,124.000 243.536,124.000 243.946 C 124.000 244.356,124.360 245.150,124.800 245.709 C 125.240 246.269,125.600 247.013,125.600 247.363 C 125.600 247.713,125.960 248.360,126.400 248.800 C 126.840 249.240,127.200 249.920,127.200 250.311 C 127.200 250.702,127.560 251.330,128.000 251.707 C 128.440 252.084,128.800 252.754,128.800 253.196 C 128.800 253.638,129.160 254.360,129.600 254.800 C 130.040 255.240,130.400 255.960,130.400 256.400 C 130.400 256.840,130.760 257.560,131.200 258.000 C 131.640 258.440,132.000 259.141,132.000 259.557 C 132.000 259.974,132.260 260.414,132.578 260.536 C 132.896 260.658,133.273 261.385,133.417 262.151 C 133.561 262.918,133.921 263.638,134.217 263.751 C 134.513 263.865,134.876 264.597,135.022 265.379 C 135.171 266.170,135.527 266.800,135.826 266.800 C 136.126 266.800,136.483 267.433,136.632 268.232 C 136.780 269.019,137.131 269.752,137.411 269.860 C 137.692 269.967,138.034 270.656,138.172 271.389 C 138.309 272.123,138.687 272.824,139.011 272.949 C 139.335 273.073,139.600 273.451,139.600 273.787 C 139.600 274.322,140.927 274.400,150.000 274.400 L 160.400 274.400 160.400 273.447 C 160.400 272.830,160.118 272.419,159.600 272.284 C 159.026 272.134,158.800 271.738,158.800 270.884 C 158.800 270.030,158.574 269.634,158.000 269.484 C 157.560 269.369,157.200 268.938,157.200 268.526 C 157.200 268.115,156.840 267.470,156.400 267.093 C 155.960 266.716,155.600 266.086,155.600 265.693 C 155.600 265.300,155.240 264.670,154.800 264.293 C 154.360 263.916,154.000 263.246,154.000 262.804 C 154.000 262.362,153.640 261.640,153.200 261.200 C 152.760 260.760,152.400 259.950,152.400 259.400 C 152.400 258.771,152.174 258.400,151.790 258.400 C 151.455 258.400,151.016 257.967,150.815 257.439 C 150.614 256.910,150.258 256.360,150.025 256.215 C 149.791 256.071,149.600 255.602,149.600 255.172 C 149.600 254.743,149.240 254.084,148.800 253.707 C 148.360 253.330,148.000 252.702,148.000 252.311 C 148.000 251.920,147.645 251.245,147.210 250.810 C 146.776 250.376,146.303 249.551,146.159 248.978 C 146.015 248.405,145.650 247.841,145.349 247.725 C 145.047 247.609,144.800 247.214,144.800 246.846 C 144.800 246.479,144.440 245.870,144.000 245.493 C 143.560 245.116,143.200 244.399,143.200 243.900 C 143.200 243.401,142.840 242.768,142.400 242.493 C 141.901 242.181,141.600 241.560,141.600 240.843 C 141.600 240.030,141.366 239.632,140.800 239.484 C 140.360 239.369,140.000 238.981,140.000 238.621 C 140.000 238.261,139.640 237.580,139.200 237.108 C 138.760 236.636,138.400 235.942,138.400 235.567 C 138.400 235.192,138.147 234.788,137.838 234.670 C 137.528 234.551,137.151 233.890,137.000 233.200 C 136.849 232.510,136.476 231.851,136.173 231.734 C 135.870 231.618,135.507 230.910,135.366 230.161 C 135.219 229.375,134.872 228.800,134.545 228.800 C 134.234 228.800,133.873 228.264,133.742 227.609 C 133.611 226.954,133.255 226.212,132.952 225.960 C 132.648 225.708,132.400 225.282,132.400 225.013 C 132.400 224.744,132.061 224.217,131.646 223.842 C 131.231 223.466,130.786 222.628,130.656 221.980 C 130.518 221.292,130.165 220.800,129.810 220.800 C 129.382 220.800,129.200 220.391,129.200 219.427 C 129.200 218.405,128.995 217.989,128.400 217.800 C 127.960 217.660,127.600 217.226,127.600 216.835 C 127.600 216.444,127.240 215.798,126.800 215.400 C 126.360 215.002,126.000 214.384,126.000 214.027 C 126.000 213.670,125.640 213.070,125.200 212.693 C 124.760 212.316,124.400 211.556,124.400 211.004 C 124.400 210.412,124.171 210.000,123.843 210.000 C 122.502 210.000,122.273 204.463,123.600 204.116 C 124.164 203.968,124.400 203.570,124.400 202.767 C 124.400 202.038,124.687 201.474,125.200 201.200 C 125.667 200.950,126.000 200.362,126.000 199.789 C 126.000 199.240,126.353 198.587,126.800 198.307 C 127.240 198.032,127.600 197.429,127.600 196.966 C 127.600 196.503,127.960 195.798,128.400 195.400 C 128.840 195.002,129.200 194.363,129.200 193.981 C 129.200 193.598,129.453 193.188,129.762 193.070 C 130.072 192.951,130.449 192.290,130.600 191.600 C 130.751 190.910,131.117 190.253,131.413 190.140 C 131.709 190.026,132.069 189.396,132.213 188.740 C 132.357 188.083,132.711 187.456,132.998 187.345 C 133.286 187.235,133.639 186.518,133.783 185.751 C 133.927 184.985,134.304 184.258,134.622 184.136 C 134.940 184.014,135.200 183.664,135.200 183.357 C 135.200 183.051,135.534 182.466,135.942 182.058 C 136.350 181.650,136.804 180.840,136.950 180.258 C 137.096 179.676,137.482 179.200,137.808 179.200 C 138.199 179.200,138.400 178.794,138.400 178.003 C 138.400 177.240,138.690 176.626,139.200 176.307 C 139.640 176.032,140.000 175.506,140.000 175.136 C 140.000 174.034,140.449 173.200,141.043 173.200 C 141.370 173.200,141.600 172.788,141.600 172.200 C 141.600 171.650,141.960 170.840,142.400 170.400 C 142.840 169.960,143.200 169.313,143.200 168.963 C 143.200 168.612,143.560 168.231,144.000 168.116 C 144.569 167.967,144.800 167.570,144.800 166.741 C 144.800 166.095,145.057 165.476,145.376 165.354 C 145.692 165.233,146.076 164.563,146.229 163.867 C 146.382 163.170,146.843 162.365,147.254 162.077 C 147.664 161.790,148.000 161.155,148.000 160.666 C 148.000 160.178,148.360 159.470,148.800 159.093 C 149.240 158.716,149.600 158.158,149.600 157.853 C 149.600 157.548,149.870 157.074,150.200 156.800 C 150.530 156.526,150.800 155.974,150.800 155.574 C 150.800 155.173,151.136 154.610,151.546 154.323 C 151.957 154.035,152.421 153.215,152.578 152.500 C 152.737 151.777,153.116 151.200,153.432 151.200 C 153.771 151.200,154.000 150.797,154.000 150.200 C 154.000 149.650,154.360 148.840,154.800 148.400 C 155.240 147.960,155.600 147.330,155.600 147.000 C 155.600 146.670,155.960 146.040,156.400 145.600 C 156.840 145.160,157.200 144.513,157.200 144.163 C 157.200 143.812,157.560 143.431,158.000 143.316 C 158.518 143.181,158.800 142.770,158.800 142.153 L 158.800 141.200 148.400 141.200 C 139.327 141.200,138.000 141.278,138.000 141.813 C 138.000 142.149,137.748 142.522,137.439 142.640 C 137.131 142.759,136.766 143.456,136.628 144.189 C 136.491 144.923,136.130 145.618,135.827 145.734 C 135.524 145.851,135.151 146.510,135.000 147.200 C 134.849 147.890,134.489 148.544,134.202 148.655 C 133.914 148.765,133.561 149.482,133.417 150.249 C 133.273 151.015,132.896 151.742,132.578 151.864 C 132.260 151.986,132.000 152.516,132.000 153.043 C 132.000 153.569,131.640 154.360,131.200 154.800 C 130.760 155.240,130.400 155.846,130.400 156.146 C 130.400 156.446,130.040 157.150,129.600 157.709 C 129.160 158.269,128.800 159.013,128.800 159.363 C 128.800 159.713,128.440 160.360,128.000 160.800 C 127.560 161.240,127.200 161.926,127.200 162.325 C 127.200 162.723,126.840 163.436,126.400 163.908 C 125.960 164.380,125.600 165.112,125.600 165.534 C 125.600 165.957,125.337 166.520,125.015 166.787 C 124.694 167.054,124.309 167.661,124.160 168.136 C 124.012 168.611,123.555 169.429,123.145 169.954 C 122.735 170.479,122.400 171.249,122.400 171.666 C 122.400 172.084,122.148 172.522,121.839 172.640 C 121.531 172.759,121.163 173.473,121.021 174.228 C 120.868 175.044,120.528 175.600,120.182 175.600 C 119.833 175.600,119.600 175.988,119.600 176.567 C 119.600 177.948,119.202 178.800,118.557 178.800 C 118.230 178.800,118.000 179.212,118.000 179.800 C 118.000 180.350,117.640 181.160,117.200 181.600 C 116.760 182.040,116.400 182.848,116.400 183.397 C 116.400 183.960,116.052 184.610,115.600 184.893 C 115.104 185.203,114.800 185.826,114.800 186.534 C 114.800 187.338,114.564 187.737,114.000 187.884 C 113.492 188.017,113.200 188.430,113.200 189.014 C 113.200 190.741,112.788 191.200,111.237 191.200 C 109.502 191.200,108.800 190.629,108.800 189.216 C 108.800 188.626,108.461 187.981,108.000 187.693 C 107.490 187.374,107.200 186.760,107.200 185.997 C 107.200 185.240,106.995 184.800,106.643 184.800 C 106.048 184.800,105.600 183.965,105.600 182.856 C 105.600 182.483,105.240 181.870,104.800 181.493 C 104.360 181.116,104.000 180.446,104.000 180.004 C 104.000 179.562,103.640 178.840,103.200 178.400 C 102.760 177.960,102.400 177.240,102.400 176.800 C 102.400 176.360,102.040 175.640,101.600 175.200 C 101.160 174.760,100.800 173.969,100.800 173.443 C 100.800 172.916,100.547 172.388,100.238 172.270 C 99.928 172.151,99.551 171.490,99.400 170.800 C 99.249 170.110,98.889 169.456,98.602 169.345 C 98.314 169.235,97.966 168.544,97.828 167.811 C 97.691 167.077,97.336 166.384,97.040 166.271 C 96.743 166.157,96.378 165.410,96.228 164.611 C 96.079 163.812,95.696 163.058,95.378 162.936 C 95.037 162.805,94.800 162.178,94.800 161.404 C 94.800 160.430,94.595 160.040,94.000 159.884 C 93.411 159.730,93.200 159.338,93.200 158.400 C 93.200 157.462,92.989 157.070,92.400 156.916 C 91.803 156.760,91.600 156.370,91.600 155.380 C 91.600 154.405,91.388 153.987,90.800 153.800 C 90.205 153.611,90.000 153.195,90.000 152.173 C 90.000 151.266,89.811 150.800,89.443 150.800 C 88.798 150.800,88.400 149.948,88.400 148.567 C 88.400 148.007,88.165 147.600,87.843 147.600 C 87.198 147.600,86.800 146.748,86.800 145.367 C 86.800 144.807,86.565 144.400,86.243 144.400 C 85.640 144.400,85.200 143.562,85.200 142.414 C 85.200 142.005,84.811 141.589,84.300 141.452 C 83.156 141.146,62.793 141.184,63.600 141.492 M186.800 207.772 L 186.800 274.400 195.400 274.400 L 204.000 274.400 204.000 249.254 L 204.000 224.108 204.886 222.954 C 205.374 222.319,205.959 221.668,206.186 221.506 C 206.414 221.344,211.820 221.210,218.200 221.207 L 229.800 221.201 230.900 222.147 C 231.505 222.667,232.000 223.458,232.000 223.904 C 232.000 224.350,232.260 224.814,232.578 224.936 C 232.896 225.058,233.273 225.785,233.417 226.551 C 233.561 227.318,233.921 228.038,234.217 228.151 C 234.513 228.265,234.876 228.997,235.022 229.779 C 235.169 230.561,235.420 231.200,235.580 231.200 C 235.977 231.200,236.800 233.068,236.800 233.970 C 236.800 234.373,237.065 234.922,237.389 235.191 C 237.714 235.460,238.094 236.292,238.234 237.040 C 238.374 237.788,238.723 238.400,239.009 238.400 C 239.303 238.400,239.645 239.084,239.795 239.969 C 239.940 240.831,240.294 241.627,240.579 241.737 C 240.865 241.846,241.217 242.563,241.360 243.329 C 241.504 244.096,241.887 244.824,242.211 244.949 C 242.571 245.087,242.800 245.707,242.800 246.541 C 242.800 247.570,242.997 247.958,243.600 248.116 C 244.206 248.275,244.400 248.662,244.400 249.716 C 244.400 250.770,244.594 251.157,245.200 251.316 C 245.766 251.464,246.000 251.862,246.000 252.674 C 246.000 253.327,246.345 254.117,246.800 254.507 C 247.271 254.911,247.600 255.687,247.600 256.396 C 247.600 257.158,247.804 257.600,248.157 257.600 C 248.737 257.600,249.200 258.430,249.200 259.470 C 249.200 259.802,249.560 260.531,250.000 261.091 C 250.440 261.650,250.800 262.370,250.800 262.691 C 250.800 263.011,251.160 263.731,251.600 264.291 C 252.040 264.850,252.400 265.622,252.400 266.005 C 252.400 266.388,252.665 266.922,252.989 267.191 C 253.314 267.460,253.692 268.286,253.831 269.026 C 253.970 269.766,254.335 270.580,254.642 270.835 C 254.949 271.090,255.200 271.537,255.200 271.830 C 255.200 272.123,255.409 272.821,255.664 273.381 L 256.128 274.400 266.164 274.368 C 271.684 274.351,275.930 274.234,275.600 274.108 C 274.748 273.784,274.413 273.165,274.406 271.900 C 274.402 271.229,274.183 270.800,273.843 270.800 C 273.198 270.800,272.800 269.948,272.800 268.567 C 272.800 268.007,272.565 267.600,272.243 267.600 C 271.629 267.600,271.200 266.759,271.200 265.555 C 271.200 265.126,270.935 264.673,270.611 264.549 C 270.287 264.424,269.909 263.723,269.772 262.989 C 269.634 262.256,269.279 261.562,268.983 261.449 C 268.687 261.335,268.327 260.615,268.183 259.849 C 268.039 259.082,267.669 258.359,267.361 258.240 C 267.052 258.122,266.800 257.568,266.800 257.009 C 266.800 256.450,266.440 255.684,266.000 255.307 C 265.560 254.930,265.200 254.210,265.200 253.707 C 265.200 253.204,264.840 252.484,264.400 252.107 C 263.960 251.730,263.600 251.040,263.600 250.572 C 263.600 250.105,263.240 249.307,262.800 248.800 C 262.360 248.293,262.000 247.495,262.000 247.028 C 262.000 246.560,261.640 245.870,261.200 245.493 C 260.760 245.116,260.400 244.396,260.400 243.893 C 260.400 243.390,260.040 242.670,259.600 242.293 C 259.160 241.916,258.800 241.196,258.800 240.693 C 258.800 240.190,258.440 239.470,258.000 239.093 C 257.560 238.716,257.200 237.996,257.200 237.493 C 257.200 236.990,256.840 236.270,256.400 235.893 C 255.960 235.516,255.600 234.846,255.600 234.404 C 255.600 233.962,255.240 233.240,254.800 232.800 C 254.360 232.360,254.000 231.627,254.000 231.171 C 254.000 230.716,253.721 230.064,253.380 229.723 C 253.040 229.382,252.659 228.597,252.535 227.977 C 252.412 227.358,252.077 226.762,251.793 226.653 C 251.508 226.543,251.147 225.867,250.989 225.150 C 250.831 224.432,250.454 223.597,250.151 223.294 C 249.848 222.991,249.600 222.424,249.600 222.033 C 249.600 221.643,249.240 220.998,248.800 220.600 C 247.682 219.588,247.662 216.800,248.773 216.800 C 249.198 216.800,249.660 216.440,249.800 216.000 C 249.961 215.494,250.405 215.200,251.011 215.200 C 251.538 215.200,252.291 214.855,252.684 214.432 C 253.078 214.010,253.895 213.541,254.500 213.389 C 255.105 213.237,255.600 212.863,255.600 212.557 C 255.600 212.250,255.939 212.000,256.353 212.000 C 256.770 212.000,257.200 211.643,257.316 211.200 C 257.431 210.760,257.791 210.400,258.116 210.400 C 258.441 210.400,258.801 210.040,258.916 209.600 C 259.031 209.160,259.412 208.800,259.763 208.800 C 260.113 208.800,260.400 208.542,260.400 208.227 C 260.400 207.912,260.760 207.540,261.200 207.400 C 261.640 207.260,262.000 206.895,262.000 206.587 C 262.000 206.280,262.360 205.835,262.800 205.600 C 263.240 205.365,263.600 204.846,263.600 204.448 C 263.600 204.050,263.960 203.398,264.400 203.000 C 264.840 202.602,265.200 202.028,265.200 201.725 C 265.200 201.423,265.457 201.076,265.770 200.956 C 266.084 200.836,266.460 200.028,266.607 199.161 C 266.753 198.294,267.096 197.361,267.369 197.088 C 267.642 196.815,267.986 195.707,268.135 194.625 C 268.283 193.544,268.689 192.344,269.037 191.959 C 269.975 190.922,269.964 170.265,269.024 169.227 C 268.683 168.850,268.283 167.656,268.135 166.575 C 267.986 165.493,267.647 164.390,267.381 164.124 C 267.115 163.857,266.774 162.821,266.624 161.820 C 266.445 160.630,266.152 160.000,265.775 160.000 C 265.459 160.000,265.196 159.685,265.191 159.300 C 265.186 158.915,264.830 158.150,264.400 157.600 C 263.970 157.050,263.614 156.381,263.609 156.114 C 263.604 155.847,263.240 155.435,262.800 155.200 C 262.360 154.965,262.000 154.508,262.000 154.186 C 262.000 153.864,261.713 153.600,261.363 153.600 C 261.012 153.600,260.631 153.240,260.516 152.800 C 260.401 152.360,260.070 152.000,259.780 152.000 C 259.491 152.000,259.140 151.640,259.000 151.200 C 258.860 150.760,258.488 150.400,258.173 150.400 C 257.858 150.400,257.600 150.216,257.600 149.990 C 257.600 149.765,257.150 149.409,256.600 149.200 C 256.050 148.991,255.600 148.545,255.600 148.210 C 255.600 147.867,255.250 147.600,254.800 147.600 C 254.360 147.600,253.640 147.240,253.200 146.800 C 252.760 146.360,252.040 146.000,251.600 146.000 C 251.160 146.000,250.440 145.640,250.000 145.200 C 249.560 144.760,248.667 144.400,248.014 144.400 C 247.238 144.400,246.680 144.124,246.400 143.600 C 246.043 142.933,245.562 142.800,243.517 142.800 C 241.741 142.800,240.849 142.607,240.290 142.100 C 239.573 141.451,237.594 141.391,213.158 141.272 L 186.800 141.144 186.800 207.772 M232.659 156.454 C 233.118 156.860,234.372 157.175,235.954 157.284 C 237.730 157.406,238.657 157.663,238.998 158.129 C 239.268 158.498,239.956 158.800,240.529 158.800 C 241.101 158.800,241.891 159.131,242.284 159.536 C 242.678 159.941,243.315 160.385,243.700 160.523 C 244.085 160.662,244.400 161.051,244.400 161.387 C 244.400 161.724,244.687 162.000,245.037 162.000 C 245.388 162.000,245.769 162.360,245.884 162.800 C 245.999 163.240,246.348 163.600,246.659 163.600 C 246.970 163.600,247.343 163.915,247.486 164.300 C 247.630 164.685,248.074 165.235,248.474 165.523 C 248.873 165.810,249.200 166.476,249.200 167.003 C 249.200 167.529,249.489 168.122,249.842 168.320 C 250.237 168.540,250.570 169.436,250.705 170.640 C 250.830 171.756,251.199 172.801,251.563 173.067 C 252.679 173.886,252.736 187.453,251.632 189.733 C 251.175 190.679,250.800 191.846,250.800 192.326 C 250.800 192.807,250.440 193.560,250.000 194.000 C 249.560 194.440,249.200 195.055,249.200 195.367 C 249.200 196.373,248.729 197.200,248.157 197.200 C 247.851 197.200,247.600 197.577,247.600 198.037 C 247.600 198.538,247.279 198.959,246.800 199.084 C 246.360 199.199,246.000 199.530,246.000 199.820 C 246.000 200.109,245.640 200.460,245.200 200.600 C 244.760 200.740,244.400 201.100,244.400 201.400 C 244.400 201.700,244.057 202.055,243.637 202.188 C 243.217 202.321,242.777 202.684,242.658 202.993 C 242.539 203.303,241.815 203.673,241.049 203.817 C 240.282 203.961,239.567 204.308,239.460 204.589 C 239.352 204.870,238.394 205.228,237.332 205.385 C 236.269 205.543,235.071 205.966,234.669 206.325 C 233.444 207.423,205.378 207.328,204.569 206.224 C 204.092 205.573,204.000 201.584,204.000 181.559 L 204.000 157.671 205.265 156.606 L 206.531 155.541 219.224 155.671 C 230.285 155.783,232.012 155.884,232.659 156.454 " stroke="none" fill="#fff" fill-rule="evenodd"></path><path id="path2" d="M13.200 0.400 C 13.200 0.620,12.570 0.800,11.800 0.800 C 10.667 0.800,10.400 0.952,10.400 1.600 C 10.400 2.133,10.133 2.400,9.600 2.400 C 9.067 2.400,8.800 2.667,8.800 3.200 C 8.800 3.726,8.533 4.000,8.021 4.000 C 7.592 4.000,6.756 4.450,6.162 5.000 C 5.569 5.550,4.938 6.000,4.760 6.000 C 4.582 6.000,4.318 6.630,4.174 7.400 C 3.984 8.413,3.702 8.800,3.155 8.800 C 2.667 8.800,2.400 9.082,2.400 9.600 C 2.400 10.133,2.133 10.400,1.600 10.400 C 0.952 10.400,0.800 10.667,0.800 11.800 C 0.800 12.570,0.620 13.200,0.400 13.200 C 0.134 13.200,0.000 75.733,0.000 200.000 C 0.000 324.267,0.134 386.800,0.400 386.800 C 0.620 386.800,0.800 387.430,0.800 388.200 C 0.800 389.333,0.952 389.600,1.600 389.600 C 2.145 389.600,2.400 389.867,2.400 390.437 C 2.400 390.930,2.720 391.359,3.177 391.478 C 3.623 391.595,4.060 392.163,4.202 392.810 C 4.373 393.589,4.816 394.067,5.630 394.351 C 6.279 394.577,6.917 395.041,7.048 395.381 C 7.179 395.721,7.626 396.000,8.043 396.000 C 8.533 396.000,8.800 396.282,8.800 396.800 C 8.800 397.333,9.067 397.600,9.600 397.600 C 10.133 397.600,10.400 397.867,10.400 398.400 C 10.400 399.048,10.667 399.200,11.800 399.200 C 12.570 399.200,13.200 399.380,13.200 399.600 C 13.200 399.866,75.733 400.000,200.000 400.000 C 324.267 400.000,386.800 399.866,386.800 399.600 C 386.800 399.380,387.357 399.200,388.037 399.200 C 388.938 399.200,389.332 398.983,389.484 398.400 C 389.604 397.940,390.030 397.600,390.484 397.600 C 390.938 397.600,391.364 397.260,391.484 396.800 C 391.599 396.360,391.942 396.000,392.247 396.000 C 392.551 396.000,392.800 395.640,392.800 395.200 C 392.800 394.667,393.067 394.400,393.600 394.400 C 394.133 394.400,394.400 394.133,394.400 393.600 C 394.400 393.067,394.667 392.800,395.200 392.800 C 395.640 392.800,396.000 392.551,396.000 392.247 C 396.000 391.942,396.360 391.599,396.800 391.484 C 397.260 391.364,397.600 390.938,397.600 390.484 C 397.600 390.030,397.940 389.604,398.400 389.484 C 398.983 389.332,399.200 388.938,399.200 388.037 C 399.200 387.357,399.380 386.800,399.600 386.800 C 399.866 386.800,400.000 324.267,400.000 200.000 C 400.000 75.733,399.866 13.200,399.600 13.200 C 399.380 13.200,399.200 12.570,399.200 11.800 C 399.200 10.667,399.048 10.400,398.400 10.400 C 397.867 10.400,397.600 10.133,397.600 9.600 C 397.600 9.082,397.333 8.800,396.845 8.800 C 396.298 8.800,396.016 8.413,395.826 7.400 C 395.682 6.630,395.418 6.000,395.240 6.000 C 395.062 6.000,394.431 5.550,393.838 5.000 C 393.244 4.450,392.519 4.000,392.226 4.000 C 391.933 4.000,391.599 3.640,391.484 3.200 C 391.359 2.721,390.938 2.400,390.437 2.400 C 389.867 2.400,389.600 2.145,389.600 1.600 C 389.600 0.952,389.333 0.800,388.200 0.800 C 387.430 0.800,386.800 0.620,386.800 0.400 C 386.800 0.134,324.267 0.000,200.000 0.000 C 75.733 0.000,13.200 0.134,13.200 0.400 M326.624 104.987 C 327.101 105.349,328.329 105.579,329.815 105.587 C 331.420 105.596,332.757 105.868,333.800 106.400 C 334.663 106.840,335.780 107.200,336.281 107.200 C 336.783 107.200,337.418 107.560,337.693 108.000 C 337.968 108.440,338.623 108.800,339.150 108.800 C 340.189 108.800,347.200 115.555,347.200 116.557 C 347.200 116.851,347.554 117.542,347.987 118.092 C 348.419 118.642,348.897 119.882,349.049 120.846 C 349.201 121.811,349.596 123.018,349.927 123.528 C 350.870 124.982,350.842 135.865,349.893 137.315 C 349.512 137.896,349.200 138.738,349.200 139.186 C 349.200 139.634,348.845 140.355,348.410 140.790 C 347.976 141.224,347.503 142.049,347.359 142.622 C 347.215 143.195,346.850 143.759,346.549 143.875 C 346.247 143.991,346.000 144.303,346.000 144.569 C 346.000 144.835,345.325 145.625,344.500 146.325 C 343.675 147.025,342.730 147.845,342.400 148.148 C 342.070 148.451,341.377 148.829,340.861 148.989 C 338.036 149.861,338.063 151.993,340.906 152.561 C 341.601 152.700,342.762 153.441,343.484 154.207 C 344.207 154.973,344.936 155.600,345.104 155.600 C 345.271 155.600,345.857 156.153,346.404 156.829 C 346.952 157.505,347.805 158.504,348.300 159.049 C 348.795 159.595,349.200 160.417,349.200 160.877 C 349.200 161.336,349.469 161.912,349.797 162.156 C 350.126 162.400,350.513 163.500,350.658 164.600 C 350.802 165.700,351.164 166.744,351.460 166.920 C 352.230 167.376,352.219 176.412,351.447 177.920 C 351.143 178.514,350.768 179.932,350.613 181.070 C 350.450 182.274,350.096 183.231,349.767 183.357 C 349.455 183.477,349.200 184.024,349.200 184.572 C 349.200 185.120,348.862 185.891,348.450 186.284 C 348.037 186.678,347.564 187.439,347.399 187.976 C 346.941 189.460,343.324 192.800,342.173 192.800 C 341.575 192.800,341.200 193.031,341.200 193.400 C 341.200 193.730,341.046 194.000,340.858 194.000 C 340.671 194.000,340.031 194.450,339.438 195.000 C 338.844 195.550,338.046 196.000,337.664 196.000 C 337.282 196.000,336.263 196.360,335.400 196.800 C 334.537 197.240,333.124 197.600,332.260 197.600 C 331.225 197.600,330.514 197.839,330.177 198.300 C 329.439 199.309,314.322 199.361,312.783 198.360 C 312.242 198.009,310.918 197.623,309.840 197.503 C 308.634 197.369,307.741 197.037,307.520 196.642 C 307.322 196.289,306.712 196.000,306.165 196.000 C 305.539 196.000,304.568 195.405,303.553 194.400 C 302.664 193.520,301.691 192.800,301.391 192.800 C 300.650 192.800,298.137 190.392,297.843 189.400 C 297.712 188.960,296.974 187.892,296.203 187.027 C 295.431 186.162,294.800 185.111,294.800 184.690 C 294.800 184.270,294.440 183.469,294.000 182.909 C 293.356 182.091,293.200 181.286,293.200 178.789 C 293.200 176.340,293.068 175.635,292.573 175.445 C 292.164 175.288,291.991 174.821,292.073 174.102 L 292.200 173.000 300.599 172.892 C 310.037 172.770,310.000 172.759,310.000 175.676 C 310.000 176.667,310.280 177.480,310.800 178.000 C 311.240 178.440,311.603 179.115,311.607 179.500 C 311.620 180.817,316.122 184.000,317.972 184.000 C 318.374 184.000,318.926 184.270,319.200 184.600 C 319.761 185.276,324.190 185.463,324.583 184.827 C 324.710 184.622,325.785 184.252,326.972 184.006 C 328.159 183.759,329.231 183.297,329.353 182.979 C 329.475 182.660,329.881 182.400,330.256 182.400 C 331.069 182.400,332.400 181.275,332.400 180.587 C 332.400 180.318,332.661 179.881,332.980 179.617 C 335.187 177.785,336.379 167.966,334.630 166.033 C 334.283 165.650,334.000 165.092,334.000 164.793 C 334.000 163.966,332.291 161.628,331.500 161.372 C 331.115 161.248,330.800 160.888,330.800 160.573 C 330.800 160.258,330.464 160.000,330.054 160.000 C 329.644 160.000,328.850 159.640,328.291 159.200 C 327.370 158.476,326.668 158.400,320.865 158.400 C 312.721 158.400,313.198 158.807,313.205 151.871 C 313.213 144.163,312.696 144.800,318.950 144.800 C 323.774 144.800,324.249 144.734,324.707 144.000 C 325.023 143.494,325.640 143.200,326.386 143.200 C 328.250 143.200,332.400 140.067,332.400 138.659 C 332.400 138.221,332.715 137.515,333.100 137.089 C 334.146 135.933,334.145 126.137,333.099 125.551 C 332.715 125.336,332.400 124.935,332.400 124.660 C 332.400 124.067,329.063 120.800,328.458 120.800 C 328.228 120.800,327.863 120.485,327.648 120.100 C 327.305 119.489,326.589 119.400,321.996 119.400 C 317.447 119.400,316.666 119.495,316.224 120.100 C 315.942 120.485,315.581 120.800,315.420 120.800 C 314.729 120.800,311.650 124.463,311.405 125.575 C 311.258 126.246,310.897 126.931,310.603 127.098 C 310.310 127.264,310.009 127.940,309.935 128.600 L 309.800 129.800 302.052 129.909 C 296.675 129.984,294.134 129.878,293.752 129.560 C 292.886 128.841,293.047 125.753,294.000 124.800 C 294.539 124.261,294.800 123.467,294.800 122.363 C 294.800 121.332,295.096 120.350,295.600 119.709 C 296.040 119.150,296.400 118.396,296.400 118.035 C 296.400 117.674,296.760 117.070,297.200 116.693 C 297.640 116.316,298.000 115.740,298.000 115.413 C 298.000 114.553,302.280 110.400,303.166 110.400 C 303.578 110.400,304.019 110.127,304.147 109.794 C 304.275 109.461,304.789 109.003,305.290 108.777 C 305.790 108.551,306.650 108.106,307.200 107.789 C 307.750 107.471,308.605 107.209,309.100 107.206 C 309.595 107.203,310.360 106.840,310.800 106.400 C 311.426 105.774,312.145 105.597,314.100 105.587 C 315.661 105.579,316.892 105.354,317.376 104.987 C 317.934 104.565,319.237 104.400,322.000 104.400 C 324.763 104.400,326.066 104.565,326.624 104.987 M85.684 140.700 C 86.019 141.085,86.410 141.895,86.554 142.500 C 86.698 143.105,86.978 143.600,87.176 143.600 C 87.374 143.600,87.659 144.158,87.809 144.841 C 87.959 145.523,88.423 146.423,88.841 146.841 C 89.258 147.258,89.600 147.960,89.600 148.400 C 89.600 148.840,89.960 149.560,90.400 150.000 C 90.840 150.440,91.200 151.087,91.200 151.437 C 91.200 151.787,91.560 152.531,92.000 153.091 C 92.440 153.650,92.800 154.449,92.800 154.866 C 92.800 155.284,93.059 155.724,93.376 155.846 C 93.692 155.967,94.070 156.610,94.216 157.274 C 94.362 157.938,94.823 158.823,95.241 159.241 C 95.658 159.658,96.000 160.431,96.000 160.957 C 96.000 161.484,96.260 162.014,96.578 162.136 C 96.896 162.258,97.273 162.985,97.417 163.751 C 97.561 164.518,97.914 165.235,98.202 165.345 C 98.489 165.456,98.843 166.086,98.988 166.745 C 99.133 167.405,99.510 168.159,99.826 168.421 C 100.142 168.683,100.400 169.212,100.400 169.595 C 100.400 169.978,100.760 170.750,101.200 171.309 C 101.640 171.869,102.000 172.613,102.000 172.963 C 102.000 173.313,102.360 173.960,102.800 174.400 C 103.240 174.840,103.600 175.536,103.600 175.946 C 103.600 176.356,103.960 177.150,104.400 177.709 C 104.840 178.269,105.200 179.096,105.200 179.549 C 105.200 180.002,105.560 180.565,106.000 180.800 C 106.499 181.067,106.800 181.638,106.800 182.318 C 106.800 182.974,107.118 183.606,107.600 183.907 C 108.087 184.211,108.400 184.840,108.400 185.514 C 108.400 186.127,108.757 186.928,109.200 187.307 C 109.640 187.684,110.000 188.444,110.000 188.996 C 110.000 189.800,110.199 190.000,111.000 190.000 C 111.801 190.000,112.000 189.800,112.000 188.996 C 112.000 188.444,112.360 187.684,112.800 187.307 C 113.240 186.930,113.600 186.210,113.600 185.707 C 113.600 185.204,113.960 184.484,114.400 184.107 C 114.840 183.730,115.200 183.040,115.200 182.573 C 115.200 182.106,115.560 181.398,116.000 181.000 C 116.440 180.602,116.800 179.927,116.800 179.501 C 116.800 179.075,117.160 178.269,117.600 177.709 C 118.040 177.150,118.400 176.474,118.400 176.207 C 118.400 175.941,118.760 175.307,119.200 174.800 C 119.640 174.293,120.000 173.556,120.000 173.162 C 120.000 172.769,120.183 172.334,120.406 172.196 C 120.629 172.058,121.076 171.314,121.399 170.542 C 121.721 169.770,122.528 168.333,123.192 167.349 C 123.857 166.365,124.400 165.406,124.400 165.217 C 124.400 164.590,126.571 160.605,127.090 160.280 C 127.371 160.104,127.600 159.521,127.600 158.984 C 127.600 158.440,127.955 157.785,128.400 157.507 C 128.867 157.215,129.200 156.574,129.200 155.966 C 129.200 155.393,129.560 154.598,130.000 154.200 C 130.440 153.802,130.800 153.082,130.800 152.600 C 130.800 152.118,131.160 151.398,131.600 151.000 C 132.040 150.602,132.400 149.848,132.400 149.325 C 132.400 148.803,132.652 148.278,132.961 148.160 C 133.269 148.041,133.639 147.318,133.783 146.551 C 133.927 145.785,134.287 145.065,134.583 144.951 C 134.879 144.838,135.234 144.172,135.372 143.472 C 135.509 142.773,136.130 141.702,136.751 141.093 L 137.880 139.987 148.840 140.093 L 159.800 140.200 159.929 141.326 C 160.000 141.947,159.734 142.933,159.334 143.526 C 158.153 145.277,157.656 146.126,156.998 147.517 C 156.655 148.242,156.110 148.936,155.787 149.060 C 155.464 149.184,155.200 149.766,155.200 150.354 C 155.200 150.941,154.840 151.730,154.400 152.107 C 153.960 152.484,153.600 153.132,153.600 153.547 C 153.600 153.962,153.348 154.511,153.039 154.767 C 152.731 155.023,151.971 156.236,151.350 157.463 C 150.730 158.690,149.992 159.782,149.711 159.890 C 149.430 159.997,149.200 160.516,149.200 161.043 C 149.200 161.569,148.840 162.360,148.400 162.800 C 147.960 163.240,147.600 163.846,147.600 164.146 C 147.600 164.446,147.251 165.136,146.825 165.678 C 146.398 166.220,145.925 167.158,145.773 167.764 C 145.621 168.369,145.250 168.959,144.949 169.075 C 144.647 169.191,144.400 169.530,144.400 169.829 C 144.400 170.127,144.040 170.565,143.600 170.800 C 143.131 171.051,142.800 171.638,142.800 172.218 C 142.800 172.762,142.440 173.516,142.000 173.893 C 141.560 174.270,141.200 174.986,141.200 175.486 C 141.200 175.985,140.840 176.618,140.400 176.893 C 139.921 177.192,139.600 177.826,139.600 178.474 C 139.600 179.072,139.269 179.788,138.857 180.077 C 138.449 180.365,137.975 181.050,137.804 181.600 C 137.633 182.150,136.989 183.241,136.373 184.024 C 135.757 184.807,135.128 185.946,134.975 186.556 C 134.822 187.166,134.455 187.757,134.159 187.871 C 133.864 187.984,133.504 188.704,133.360 189.471 C 133.217 190.237,132.860 190.955,132.569 191.067 C 132.277 191.179,131.836 191.885,131.588 192.635 C 131.341 193.386,130.972 194.000,130.769 194.000 C 130.566 194.000,130.400 194.268,130.400 194.597 C 130.400 194.925,130.040 195.418,129.600 195.693 C 129.115 195.996,128.800 196.626,128.800 197.293 C 128.800 197.960,128.485 198.590,128.000 198.893 C 127.560 199.168,127.200 199.801,127.200 200.300 C 127.200 200.799,126.840 201.516,126.400 201.893 C 125.960 202.270,125.600 202.898,125.600 203.289 C 125.600 203.680,125.240 204.360,124.800 204.800 C 124.284 205.316,124.000 206.133,124.000 207.104 C 124.000 208.174,124.230 208.751,124.800 209.107 C 125.285 209.410,125.600 210.040,125.600 210.707 C 125.600 211.374,125.915 212.004,126.400 212.307 C 126.840 212.582,127.200 213.137,127.200 213.541 C 127.200 213.945,127.560 214.602,128.000 215.000 C 128.440 215.398,128.800 215.947,128.800 216.219 C 128.800 216.492,129.047 216.809,129.349 216.925 C 129.650 217.041,130.025 217.645,130.181 218.268 C 130.337 218.890,130.810 219.722,131.232 220.116 C 131.655 220.509,132.000 221.274,132.000 221.816 C 132.000 222.357,132.167 222.800,132.371 222.800 C 132.575 222.800,133.002 223.295,133.321 223.900 C 133.639 224.505,134.196 225.566,134.558 226.258 C 134.920 226.950,135.483 227.737,135.808 228.007 C 136.134 228.277,136.400 228.838,136.400 229.253 C 136.400 229.668,136.760 230.316,137.200 230.693 C 137.640 231.070,138.000 231.766,138.000 232.240 C 138.000 232.714,138.266 233.323,138.592 233.593 C 138.917 233.863,139.433 234.560,139.737 235.142 C 141.065 237.679,141.463 238.320,142.111 238.969 C 142.490 239.347,142.800 240.051,142.800 240.532 C 142.800 241.014,143.160 241.632,143.600 241.907 C 144.040 242.182,144.400 242.836,144.400 243.361 C 144.400 243.886,144.915 244.867,145.544 245.540 C 146.174 246.214,146.931 247.350,147.227 248.066 C 147.523 248.781,148.088 249.688,148.483 250.083 C 148.877 250.477,149.200 251.087,149.200 251.437 C 149.200 251.787,149.560 252.531,150.000 253.091 C 150.440 253.650,150.800 254.424,150.800 254.811 C 150.800 255.198,151.070 255.618,151.400 255.745 C 151.730 255.871,152.000 256.223,152.000 256.525 C 152.000 256.828,152.360 257.402,152.800 257.800 C 153.240 258.198,153.600 258.828,153.600 259.200 C 153.600 259.572,153.960 260.202,154.400 260.600 C 154.840 260.998,155.200 261.740,155.200 262.248 C 155.200 262.762,155.554 263.362,156.000 263.600 C 156.521 263.879,156.800 264.438,156.800 265.200 C 156.800 265.962,157.079 266.521,157.600 266.800 C 158.040 267.035,158.400 267.473,158.400 267.771 C 158.400 268.070,158.647 268.409,158.949 268.525 C 159.250 268.641,159.615 269.205,159.759 269.778 C 159.903 270.351,160.376 271.176,160.810 271.610 C 161.690 272.490,161.857 274.383,161.120 275.120 C 160.771 275.469,157.746 275.600,150.019 275.600 L 139.397 275.600 138.350 274.491 C 137.775 273.881,137.179 272.816,137.027 272.124 C 136.875 271.433,136.509 270.774,136.213 270.660 C 135.917 270.547,135.557 269.914,135.412 269.255 C 135.267 268.595,134.902 267.850,134.600 267.600 C 134.298 267.350,133.938 266.630,133.800 266.000 C 133.662 265.370,133.290 264.641,132.974 264.379 C 132.658 264.117,132.400 263.592,132.400 263.212 C 132.400 262.833,132.040 262.107,131.600 261.600 C 131.160 261.093,130.800 260.343,130.800 259.935 C 130.800 259.526,130.440 258.884,130.000 258.507 C 129.560 258.130,129.200 257.362,129.200 256.800 C 129.200 256.238,128.840 255.470,128.400 255.093 C 127.960 254.716,127.600 253.999,127.600 253.500 C 127.600 253.001,127.240 252.368,126.800 252.093 C 126.360 251.818,126.000 251.248,126.000 250.825 C 126.000 250.403,125.731 249.788,125.402 249.459 C 125.072 249.130,124.623 248.442,124.403 247.930 C 123.979 246.947,123.475 246.072,122.334 244.340 C 121.950 243.757,121.520 242.820,121.378 242.257 C 121.237 241.693,120.869 241.023,120.561 240.767 C 120.252 240.511,120.000 239.971,120.000 239.567 C 120.000 239.162,119.661 238.509,119.247 238.116 C 118.832 237.722,118.371 236.830,118.222 236.133 C 118.073 235.437,117.692 234.767,117.376 234.646 C 117.059 234.524,116.800 233.997,116.800 233.475 C 116.800 232.952,116.440 232.198,116.000 231.800 C 115.560 231.402,115.200 230.682,115.200 230.200 C 115.200 229.718,114.840 228.998,114.400 228.600 C 113.960 228.202,113.600 227.448,113.600 226.925 C 113.600 226.403,113.337 225.874,113.015 225.750 C 112.694 225.627,112.317 225.167,112.177 224.729 C 111.867 223.750,110.000 225.197,110.000 226.416 C 110.000 226.788,109.640 227.550,109.200 228.109 C 108.760 228.669,108.400 229.389,108.400 229.709 C 108.400 230.030,108.085 230.723,107.700 231.249 C 106.926 232.306,106.140 233.632,105.301 235.292 C 104.998 235.893,104.595 236.480,104.405 236.597 C 104.216 236.714,103.941 237.359,103.793 238.032 C 103.645 238.704,103.289 239.344,103.002 239.455 C 102.714 239.565,102.361 240.282,102.217 241.049 C 102.073 241.815,101.713 242.535,101.417 242.649 C 101.121 242.762,100.761 243.482,100.617 244.249 C 100.473 245.015,100.096 245.742,99.778 245.864 C 99.460 245.986,99.200 246.518,99.200 247.047 C 99.200 247.575,98.840 248.316,98.400 248.693 C 97.960 249.070,97.600 249.674,97.600 250.035 C 97.600 250.396,97.240 251.150,96.800 251.709 C 96.360 252.269,96.000 253.101,96.000 253.560 C 96.000 254.018,95.640 254.618,95.200 254.893 C 94.760 255.168,94.400 255.799,94.400 256.296 C 94.400 256.793,94.040 257.560,93.600 258.000 C 93.160 258.440,92.800 259.160,92.800 259.600 C 92.800 260.040,92.440 260.760,92.000 261.200 C 91.560 261.640,91.200 262.338,91.200 262.751 C 91.200 263.164,90.937 263.720,90.616 263.987 C 89.969 264.524,87.600 269.193,87.600 269.932 C 87.600 270.189,87.449 270.400,87.265 270.400 C 87.081 270.400,86.414 271.435,85.783 272.700 C 84.242 275.786,85.100 275.587,73.326 275.594 C 61.401 275.601,59.582 275.275,61.400 273.457 C 61.730 273.127,62.000 272.692,62.000 272.491 C 62.000 272.289,62.360 271.798,62.800 271.400 C 63.240 271.002,63.600 270.255,63.600 269.741 C 63.600 269.227,63.960 268.582,64.400 268.307 C 64.840 268.032,65.200 267.429,65.200 266.966 C 65.200 266.503,65.560 265.798,66.000 265.400 C 66.440 265.002,66.800 264.450,66.800 264.174 C 66.800 263.559,68.831 260.400,69.227 260.400 C 69.383 260.400,69.631 259.761,69.778 258.979 C 69.924 258.197,70.304 257.458,70.622 257.336 C 70.940 257.214,71.200 256.798,71.200 256.411 C 71.200 256.024,71.526 255.279,71.925 254.754 C 72.323 254.229,73.162 252.900,73.789 251.800 C 74.415 250.700,75.169 249.656,75.464 249.480 C 75.759 249.304,76.000 248.717,76.000 248.176 C 76.000 247.635,76.360 246.884,76.800 246.507 C 77.240 246.130,77.600 245.502,77.600 245.111 C 77.600 244.720,77.960 244.040,78.400 243.600 C 78.840 243.160,79.200 242.563,79.200 242.272 C 79.200 241.982,79.920 240.779,80.800 239.600 C 81.680 238.421,82.400 237.201,82.400 236.891 C 82.400 236.580,82.760 235.869,83.200 235.309 C 83.640 234.750,84.000 233.951,84.000 233.534 C 84.000 233.116,84.261 232.675,84.581 232.552 C 84.900 232.430,85.351 231.754,85.583 231.051 C 85.815 230.348,86.544 229.183,87.203 228.462 C 87.861 227.741,88.400 226.802,88.400 226.375 C 88.400 225.949,88.742 225.258,89.159 224.841 C 89.577 224.423,90.041 223.523,90.191 222.841 C 90.341 222.158,90.627 221.600,90.826 221.600 C 91.026 221.600,91.466 221.015,91.805 220.300 C 92.859 218.077,93.518 217.078,94.171 216.712 C 94.517 216.519,94.800 215.917,94.800 215.376 C 94.800 214.835,95.160 214.084,95.600 213.707 C 96.040 213.330,96.400 212.614,96.400 212.114 C 96.400 211.615,96.760 210.982,97.200 210.707 C 97.640 210.432,98.000 209.931,98.000 209.593 C 98.000 209.255,98.312 208.533,98.693 207.989 C 99.587 206.714,99.424 205.894,97.960 204.297 C 97.306 203.583,96.662 202.550,96.529 202.000 C 96.396 201.450,95.953 200.678,95.544 200.284 C 95.135 199.891,94.800 199.169,94.800 198.681 C 94.800 198.192,94.440 197.568,94.000 197.293 C 93.560 197.018,93.200 196.367,93.200 195.847 C 93.200 195.326,92.585 194.229,91.833 193.408 C 91.081 192.587,90.356 191.480,90.223 190.947 C 90.089 190.415,89.624 189.624,89.190 189.190 C 88.755 188.755,88.400 188.113,88.400 187.763 C 88.400 187.413,88.040 186.669,87.600 186.109 C 87.160 185.550,86.800 184.751,86.800 184.334 C 86.800 183.916,86.554 183.481,86.254 183.365 C 85.954 183.250,85.216 182.183,84.615 180.994 C 84.013 179.805,83.269 178.623,82.961 178.367 C 82.652 178.111,82.400 177.468,82.400 176.938 C 82.400 176.409,82.132 175.872,81.804 175.746 C 81.477 175.621,81.025 174.835,80.800 174.000 C 80.575 173.165,80.123 172.379,79.796 172.254 C 79.468 172.128,79.200 171.684,79.200 171.266 C 79.200 170.849,78.840 170.050,78.400 169.491 C 77.960 168.931,77.600 168.367,77.600 168.237 C 77.600 168.107,77.240 167.640,76.800 167.200 C 76.360 166.760,76.000 166.130,76.000 165.800 C 76.000 165.470,75.640 164.840,75.200 164.400 C 74.760 163.960,74.400 163.240,74.400 162.800 C 74.400 162.360,74.040 161.640,73.600 161.200 C 73.160 160.760,72.800 159.950,72.800 159.400 C 72.800 158.850,72.575 158.392,72.300 158.383 C 71.725 158.364,70.000 155.818,70.000 154.988 C 70.000 154.682,69.655 154.109,69.232 153.716 C 68.810 153.322,68.343 152.512,68.193 151.916 C 68.044 151.320,67.669 150.623,67.361 150.367 C 67.052 150.111,66.800 149.597,66.800 149.223 C 66.800 148.850,66.080 147.579,65.200 146.400 C 64.320 145.221,63.600 144.002,63.600 143.692 C 63.600 143.382,63.217 142.818,62.749 142.439 C 62.133 141.940,61.975 141.509,62.176 140.875 C 62.567 139.644,84.624 139.480,85.684 140.700 M239.700 140.421 C 240.525 140.650,241.200 140.989,241.200 141.174 C 241.200 141.358,242.476 141.582,244.037 141.670 C 246.184 141.791,246.966 141.997,247.256 142.515 C 247.483 142.920,248.122 143.200,248.816 143.200 C 249.560 143.200,250.177 143.495,250.493 144.000 C 250.794 144.482,251.426 144.800,252.082 144.800 C 252.762 144.800,253.333 145.101,253.600 145.600 C 253.851 146.070,254.438 146.400,255.019 146.400 C 255.996 146.400,264.800 154.705,264.800 155.627 C 264.800 155.837,265.409 156.874,266.153 157.933 C 266.897 158.991,267.631 160.599,267.784 161.506 C 267.937 162.412,268.303 163.353,268.597 163.597 C 268.890 163.841,269.258 164.966,269.413 166.097 C 269.569 167.228,269.945 168.402,270.248 168.705 C 271.184 169.641,271.146 191.291,270.206 192.400 C 269.927 192.730,269.570 193.900,269.413 195.000 C 269.257 196.100,268.895 197.270,268.609 197.600 C 268.323 197.930,267.956 198.823,267.794 199.584 C 267.493 200.998,266.198 203.145,265.300 203.720 C 265.025 203.896,264.800 204.419,264.800 204.882 C 264.800 205.790,256.341 214.400,255.450 214.400 C 255.178 214.400,254.345 214.850,253.600 215.400 C 252.855 215.950,251.990 216.400,251.679 216.400 C 250.106 216.400,248.490 219.353,249.789 219.851 C 250.113 219.976,250.491 220.677,250.628 221.411 C 250.766 222.144,251.121 222.838,251.417 222.951 C 251.713 223.065,252.073 223.785,252.217 224.551 C 252.361 225.318,252.721 226.038,253.017 226.151 C 253.313 226.265,253.673 226.985,253.817 227.751 C 253.961 228.518,254.331 229.241,254.639 229.360 C 254.948 229.478,255.200 230.032,255.200 230.591 C 255.200 231.150,255.560 231.916,256.000 232.293 C 256.440 232.670,256.800 233.434,256.800 233.993 C 256.800 234.574,257.141 235.221,257.600 235.507 C 258.085 235.810,258.400 236.440,258.400 237.107 C 258.400 237.774,258.715 238.404,259.200 238.707 C 259.685 239.010,260.000 239.640,260.000 240.307 C 260.000 240.974,260.315 241.604,260.800 241.907 C 261.252 242.190,261.600 242.840,261.600 243.403 C 261.600 243.952,261.960 244.760,262.400 245.200 C 262.840 245.640,263.200 246.287,263.200 246.637 C 263.200 246.987,263.560 247.731,264.000 248.291 C 264.440 248.850,264.800 249.604,264.800 249.965 C 264.800 250.326,265.160 250.930,265.600 251.307 C 266.040 251.684,266.400 252.450,266.400 253.009 C 266.400 253.568,266.652 254.122,266.961 254.240 C 267.269 254.359,267.634 255.056,267.772 255.789 C 267.909 256.523,268.264 257.216,268.560 257.329 C 268.857 257.443,269.217 258.163,269.360 258.929 C 269.504 259.696,269.887 260.424,270.211 260.549 C 270.548 260.678,270.800 261.287,270.800 261.973 C 270.800 262.762,271.073 263.318,271.600 263.600 C 272.121 263.879,272.400 264.438,272.400 265.200 C 272.400 265.962,272.679 266.521,273.200 266.800 C 273.668 267.050,274.000 267.638,274.000 268.214 C 274.000 268.756,274.360 269.560,274.800 270.000 C 275.240 270.440,275.600 271.250,275.600 271.800 C 275.600 272.350,275.774 272.800,275.986 272.800 C 276.726 272.800,277.297 274.401,276.779 275.026 C 275.388 276.702,254.433 275.627,254.387 273.877 C 254.381 273.615,253.932 272.500,253.391 271.400 C 252.850 270.300,252.406 269.079,252.404 268.687 C 252.402 268.296,252.135 267.873,251.811 267.749 C 251.487 267.624,251.107 266.910,250.966 266.161 C 250.826 265.413,250.558 264.800,250.371 264.800 C 250.184 264.800,249.842 264.099,249.611 263.241 C 249.380 262.384,248.923 261.579,248.596 261.454 C 248.268 261.328,248.000 260.768,248.000 260.209 C 248.000 259.650,247.640 258.884,247.200 258.507 C 246.760 258.130,246.400 257.362,246.400 256.800 C 246.400 256.238,246.040 255.470,245.600 255.093 C 245.160 254.716,244.800 253.996,244.800 253.493 C 244.800 252.990,244.440 252.270,244.000 251.893 C 243.560 251.516,243.200 250.846,243.200 250.404 C 243.200 249.962,242.840 249.240,242.400 248.800 C 241.960 248.360,241.600 247.544,241.600 246.987 C 241.600 246.431,241.341 245.876,241.024 245.754 C 240.708 245.633,240.324 244.963,240.172 244.267 C 240.020 243.570,239.559 242.571,239.148 242.046 C 238.737 241.521,238.400 240.888,238.400 240.639 C 238.400 240.389,237.680 238.752,236.800 237.000 C 235.920 235.248,235.200 233.519,235.200 233.157 C 235.200 232.794,234.935 232.278,234.611 232.009 C 234.286 231.740,233.909 230.920,233.771 230.188 C 233.634 229.455,233.269 228.759,232.961 228.640 C 232.652 228.522,232.400 227.968,232.400 227.409 C 232.400 226.850,232.040 226.084,231.600 225.707 C 231.160 225.330,230.800 224.849,230.800 224.637 C 230.800 222.598,229.683 222.400,218.200 222.400 L 207.339 222.400 206.370 223.432 L 205.400 224.465 205.320 249.491 C 205.277 263.255,205.147 274.760,205.033 275.058 C 204.816 275.624,187.640 275.897,186.233 275.357 C 185.572 275.104,185.209 140.925,185.867 140.267 C 186.323 139.810,238.034 139.958,239.700 140.421 M206.297 157.713 L 205.193 158.635 205.297 182.018 L 205.400 205.400 219.523 205.505 C 231.443 205.594,233.738 205.520,234.228 205.029 C 234.548 204.709,235.632 204.324,236.637 204.174 C 237.641 204.023,238.551 203.672,238.657 203.395 C 238.764 203.117,239.370 202.786,240.003 202.659 C 240.968 202.466,242.596 201.236,244.600 199.185 C 247.339 196.382,248.000 195.548,248.000 194.893 C 248.000 194.470,248.360 193.798,248.800 193.400 C 249.240 193.002,249.600 192.245,249.600 191.718 C 249.600 191.191,249.910 190.184,250.288 189.480 C 251.301 187.597,251.294 175.041,250.280 173.593 C 249.906 173.059,249.600 172.030,249.600 171.307 C 249.600 170.487,249.299 169.734,248.800 169.307 C 248.360 168.930,248.000 168.249,248.000 167.792 C 248.000 166.954,242.761 161.200,241.998 161.200 C 241.779 161.200,241.600 160.930,241.600 160.600 C 241.600 160.206,241.206 160.000,240.454 160.000 C 239.824 160.000,238.850 159.640,238.291 159.200 C 237.574 158.636,236.668 158.400,235.223 158.400 C 233.943 158.400,232.771 158.137,232.104 157.700 C 231.159 157.080,229.690 156.988,219.218 156.895 L 207.400 156.791 206.297 157.713 " stroke="none" fill="#000" fill-rule="evenodd"></path></g></svg>