<?xml version="1.0" standalone="no"?>
<!DOCTYPE svg PUBLIC "-//W3C//DTD SVG 20010904//EN"
 "http://www.w3.org/TR/2001/REC-SVG-20010904/DTD/svg10.dtd">
<svg version="1.0" xmlns="http://www.w3.org/2000/svg"
 width="589.000000pt" height="589.000000pt" viewBox="0 0 589.000000 589.000000"
 preserveAspectRatio="xMidYMid meet">

<g transform="translate(0.000000,589.000000) scale(0.100000,-0.100000)"
fill="#000000" stroke="none">
<path d="M253 5876 c-102 -32 -176 -97 -222 -196 l-26 -55 0 -2680 0 -2680 26
-56 c37 -79 90 -133 167 -171 l67 -33 2680 0 2680 0 57 27 c73 34 142 103 176
176 l27 57 0 2680 0 2680 -33 67 c-38 77 -92 130 -171 167 l-56 26 -2665 2
c-2184 1 -2673 -1 -2707 -11z m4632 -1542 c152 -39 247 -142 275 -295 26 -144
-27 -273 -144 -347 l-40 -25 45 -23 c58 -29 106 -78 133 -134 18 -38 21 -64
21 -160 0 -104 -3 -121 -27 -172 -90 -194 -369 -278 -615 -186 -44 16 -74 38
-123 87 -70 71 -95 122 -107 219 l-6 52 132 0 c125 0 131 -1 131 -20 0 -27 32
-90 58 -113 26 -24 88 -46 127 -47 132 -1 214 107 185 246 -22 105 -69 136
-220 144 l-105 5 -3 103 -3 102 83 0 c46 0 99 5 118 10 81 22 129 117 111 215
-17 89 -74 135 -169 135 -91 0 -150 -42 -167 -117 l-7 -33 -124 0 -124 0 0 38
c2 130 116 264 267 312 74 24 216 26 298 4z m-3441 -872 l189 -373 47 88 c26
48 113 217 194 376 l147 287 180 0 180 0 -12 -22 c-7 -13 -131 -234 -277 -493
-146 -258 -265 -475 -265 -480 0 -6 124 -227 275 -490 151 -264 280 -490 287
-502 l12 -23 -180 0 -179 0 -198 380 c-109 209 -201 377 -205 373 -4 -5 -89
-165 -189 -358 -101 -192 -189 -360 -196 -372 -14 -22 -19 -23 -189 -23 -96 0
-175 3 -175 8 0 4 128 231 285 505 252 442 283 501 273 520 -6 12 -132 235
-280 495 -147 260 -268 475 -268 478 0 2 80 3 178 2 l177 -3 189 -373z m2120
355 c205 -49 340 -169 402 -360 24 -72 27 -99 28 -222 1 -118 -2 -151 -21
-210 -44 -138 -129 -247 -247 -314 l-54 -31 204 -415 c112 -228 204 -419 204
-425 0 -7 -54 -10 -162 -8 l-162 3 -183 380 -182 380 -180 3 -181 2 0 -385 0
-385 -150 0 -150 0 0 1006 0 1006 383 -5 c306 -3 396 -7 451 -20z"/>
<path d="M3030 3214 l0 -357 203 5 c176 4 209 8 258 27 148 57 219 195 198
390 -17 159 -100 253 -249 281 -29 5 -133 10 -231 10 l-179 0 0 -356z"/>
</g>
</svg>
